<?xml version="1.0" encoding="utf-8"?>
<!-- Generator: Adobe Illustrator 23.0.0, SVG Export Plug-In . SVG Version: 6.00 Build 0)  -->
<svg version="1.1" id="Layer_1" xmlns="http://www.w3.org/2000/svg" xmlns:xlink="http://www.w3.org/1999/xlink" x="0px" y="0px"
	 viewBox="0 0 200 200" style="enable-background:new 0 0 200 200;" xml:space="preserve">
<style type="text/css">
	.st0{opacity:0.5;fill:#8A42C5;}
	.st1{fill:#F6B48C;}
	.st2{fill:#4A0A81;}
	.st3{fill:#8A42C5;}
	.st4{fill:#632689;}
	.st5{fill:#E5AA83;}
	.st6{fill:#E4E6E7;}
</style>
<path class="st0" d="M166.2,184.4c0,3.3-29.5,5.9-65.8,5.9c-36.3,0-65.8-2.6-65.8-5.9c0-3.3,29.5-5.9,65.8-5.9
	C136.7,178.5,166.2,181.1,166.2,184.4z"/>
<g>
	<path class="st1" d="M70.7,82.8c-1-0.3-2.4-0.1-3.2,0.5c-0.8,0.5-2,1.8-2,2.8c0,0.4,0.2,1.2,0.6,1.4c0.7,0.3,0.6-0.4,0.9-0.9
		c0.5-0.9,1.8-1.5,2.8-1.5c1.3,0,1.5,0.6,2,1.7c0.4,1,1.3,2.4,2.8,2.2c0.4,0,1.1-0.2,1.3-0.5c0.4-0.8-1.4-4.3-2-4.3
		C72.7,84.1,72,83.3,70.7,82.8z"/>
	<path class="st2" d="M96.5,47.2c0,0-3-0.6-5.1,3.1l-3.1,20.2c0,0-6.4,8.4-15.3,12.9c0,0-1.8,2.5,1.1,5.7c0,0,12.9-4.7,21.8-15.5
		l4.6-16.7C100.6,56.8,101.4,50.5,96.5,47.2z"/>
</g>
<rect x="42.2" y="150.6" transform="matrix(0.1302 -0.9915 0.9915 0.1302 -100.3576 193.2359)" class="st3" width="35.4" height="6.4"/>
<rect x="41.5" y="111" transform="matrix(0.1305 -0.9915 0.9915 0.1305 -54.841 162.725)" class="st4" width="47.6" height="3.2"/>
<polygon class="st4" points="93.9,83.3 91.7,130.3 97.4,169.5 102.8,169.5 104.4,130.5 112.7,83.3 "/>
<path class="st2" d="M129.3,165.6l-5.8,7.5c0,0-0.7,1,0.3,2.3l12.4-9.8l-2.9-3.3L129.3,165.6z"/>
<polygon class="st4" points="94.9,86.6 103.4,105 110,132.7 129.3,165.6 134,162.3 118.2,128.7 117.9,85.3 "/>
<g>
	<rect x="103.4" y="36.4" class="st1" width="6.4" height="8.5"/>
</g>
<path class="st1" d="M121,48.6c-1.8-2.7-4.6-3.5-4.6-3.5l-6.7-2.5h-6.4l-6.7,2.5c0,0-2.8,0.7-4.6,3.5H121z"/>
<path class="st3" d="M120.4,96.2l0.5-34.3l1.3-9.7c-0.9-5.7-5.9-7-5.9-7l-5.1-1.9c-0.5,2.1-4.8,2.1-4.8,2.1c-5.3,0-4.9-2.1-4.9-2.1
	l-4.9,1.8c0,0-5,1.3-5.9,7l2.6,7.1l-1.3,36.9H120.4z"/>
<path class="st2" d="M97.4,169.5l-9.2,2.4c0,0-1.2,0.4-1.2,2h15.8l-0.2-4.4H97.4z"/>
<path class="st4" d="M96.1,25.2c-0.2-2,0-1.9-0.1-3.8c0-1.3,1.3-5.8,2.9-5.9c2.2-0.2,1.4,4.8,1.5,6.5c0.2,2.3-0.4,4.8-0.8,7
	c-0.2,0.8-0.1,2.4-1.1,2.8c-0.8,0.3-1.1-0.2-1.4-0.8C96.3,28.5,96.4,26.8,96.1,25.2z"/>
<path class="st1" d="M97,35.2c0.9,3.5,2.4,4.4,2.4,4.4l2.1,0.4c1.2-0.2,3.3-0.6,3.3-0.6c4.8-1.6,6.3-1.5,7.3-4
	c0-0.1,3.3-12.9,3.3-12.9c0.6-6.7-6.4-8-7.4-8.2c-1-0.2-7.7-2.1-9.6,4.3C98.4,18.6,95.5,26,97,35.2z"/>
<path class="st5" d="M110.6,36.5c-1.9,1.5-5.2,2.5-7.6,2.7c-4.2,0.4-5.2-2.7-5.9-6c0.1,0.8,0.2,1.5,0.3,2.3c0.8,3.2,2.3,4.1,2.3,4.1
	l1.9,0.4c1.1-0.1,3.1-0.6,3.1-0.6c4.4-1.5,5.9-1.4,6.8-3.7c0,0,0.1-0.2,0.2-0.6C111.4,35.7,111.1,36.2,110.6,36.5z"/>
<path class="st4" d="M112.7,29.9c-0.5,2.4-1.4,5.8-2.6,7.8c2-1.1,4.3-4,5.4-5.9c2-3.7,1.4-4,1.6-6.3c0.2-2.1,0.9-2.7,0.8-5
	c-0.1-1.9-3.5-7.3-5-3.4c-0.5,1.3,0.6,3.7,0.7,5C113.8,24.9,113.3,27.2,112.7,29.9z"/>
<path class="st1" d="M112.4,29.7c0,0,1.2-2.6,3-1c0,0,0.8,0.7-0.2,2.4c0,0-1.5,2.5-3.3,1.1L112.4,29.7z"/>
<path class="st4" d="M112.7,21c0,0-0.1,7.3-1,9.7l0.9,0.2c0,0,0.5-3.1,2.1-3.2l0.8-5.2L112.7,21z"/>
<path class="st4" d="M105.6,21.9c-2.1-1-3.5-1.5-5.6-2.3c-1.9-0.7-4.1-3.3-5.2-5.1c-1.1-1.7-0.6-3.9-0.5-5.9
	c0.6,1.3,3.4,2.2,4.7,2.3c0.3-1.2-0.7-2.8-0.8-4c1.9-0.7,3.7,2.3,5.4,3c2.4,1,5.1,1.5,7.6,2.4c2.3,0.8,4.3,2.2,5.2,4.5
	C119.5,24.7,109.6,23.7,105.6,21.9z"/>
<path class="st3" d="M151.4,176.3c0,1.3-1.1,2.4-2.4,2.4H62.5c-1.3,0-2.4-1.1-2.4-2.4l0,0c0-1.3,1.1-2.4,2.4-2.4H149
	C150.3,173.8,151.4,174.9,151.4,176.3L151.4,176.3z"/>
<path class="st4" d="M67.9,175.6c0,6-4.9,10.9-10.9,10.9c-6,0-10.9-4.9-10.9-10.9c0-6,4.9-10.9,10.9-10.9
	C63.1,164.7,67.9,169.6,67.9,175.6z"/>
<path class="st3" d="M63.5,175.6c0,3.6-2.9,6.4-6.4,6.4c-3.6,0-6.4-2.9-6.4-6.4c0-3.6,2.9-6.4,6.4-6.4
	C60.6,169.2,63.5,172,63.5,175.6z"/>
<path class="st6" d="M63.5,175c-1.9-0.7-2.3-1.6-1.4-3.5c-0.3-0.3-0.5-0.6-0.8-0.8c-1.8,0.9-2.8,0.5-3.5-1.5c-0.2,0-0.4,0-0.6,0
	c-0.2,0-0.4,0-0.6,0c-0.7,1.9-1.6,2.3-3.5,1.5c-0.3,0.3-0.6,0.5-0.8,0.8c0.9,1.8,0.5,2.8-1.5,3.5c0,0.2,0,0.4,0,0.6
	c0,0.2,0,0.4,0,0.6c1.9,0.7,2.3,1.6,1.5,3.5c0.3,0.3,0.5,0.6,0.8,0.8c1.8-0.9,2.8-0.5,3.5,1.5c0.2,0,0.4,0,0.6,0c0.2,0,0.4,0,0.6,0
	c0.7-1.9,1.6-2.3,3.5-1.5c0.3-0.3,0.6-0.5,0.8-0.8c-0.9-1.8-0.5-2.8,1.4-3.5c0-0.2,0-0.4,0-0.6C63.5,175.4,63.5,175.2,63.5,175z
	 M57.1,178.4c-1.5,0-2.8-1.2-2.8-2.8c0-1.5,1.2-2.8,2.8-2.8c1.5,0,2.8,1.2,2.8,2.8C59.9,177.1,58.6,178.4,57.1,178.4z"/>
<path class="st4" d="M154.5,179c0,4.1-3.3,7.4-7.4,7.4c-4.1,0-7.4-3.3-7.4-7.4c0-4.1,3.3-7.4,7.4-7.4
	C151.2,171.6,154.5,175,154.5,179z"/>
<path class="st3" d="M151.5,179c0,2.4-2,4.4-4.4,4.4c-2.4,0-4.4-2-4.4-4.4c0-2.4,2-4.4,4.4-4.4C149.6,174.7,151.5,176.6,151.5,179z"
	/>
<path class="st6" d="M151.5,178.6c-1.3-0.5-1.6-1.1-1-2.4c-0.2-0.2-0.4-0.4-0.6-0.6c-1.3,0.6-1.9,0.3-2.4-1c-0.1,0-0.3,0-0.4,0
	c-0.1,0-0.3,0-0.4,0c-0.5,1.3-1.1,1.6-2.4,1c-0.2,0.2-0.4,0.4-0.6,0.6c0.6,1.3,0.3,1.9-1,2.4c0,0.1,0,0.3,0,0.4c0,0.1,0,0.3,0,0.4
	c1.3,0.5,1.6,1.1,1,2.4c0.2,0.2,0.4,0.4,0.6,0.6c1.3-0.6,1.9-0.3,2.4,1c0.1,0,0.3,0,0.4,0c0.1,0,0.3,0,0.4,0c0.5-1.3,1.1-1.6,2.4-1
	c0.2-0.2,0.4-0.4,0.6-0.6c-0.6-1.3-0.3-1.9,1-2.4c0-0.1,0-0.3,0-0.4C151.5,178.9,151.5,178.8,151.5,178.6z M147.1,180.9
	c-1.1,0-1.9-0.9-1.9-1.9c0-1,0.8-1.9,1.9-1.9c1,0,1.9,0.9,1.9,1.9C149,180.1,148.2,180.9,147.1,180.9z"/>
<path class="st4" d="M73,87.7c0,1.7-1.4,3.2-3.2,3.2c-1.7,0-3.2-1.4-3.2-3.2s1.4-3.2,3.2-3.2C71.6,84.5,73,85.9,73,87.7z"/>
<path class="st1" d="M70.7,84.4c-1-0.3-2.4-0.1-3.2,0.5c-0.8,0.5-2,1.8-2,2.8c0,0.4,0.2,1.2,0.6,1.4c0.7,0.3,0.6-0.4,0.9-0.9
	c0.5-0.9,1.8-1.5,2.8-1.5c1.3,0,1.5,0.6,2,1.7c0.4,1,1.3,2.4,2.8,2.2c0.4,0,1.1-0.2,1.3-0.5c0.4-0.8-1.4-4.3-2-4.3
	C72.7,85.7,72,84.9,70.7,84.4z"/>
<path class="st4" d="M117.2,48.8c0,0-4.8-3-8,3.8L92,75.4c0,0-14.3,6.2-19,9.7c0,0,0.6,4.4,1.9,5.8c0,0,32.4-7.8,43.6-32.7
	C118.5,58.2,121.9,50.7,117.2,48.8z"/>
</svg>
