<?xml version="1.0" encoding="utf-8"?>
<!-- Generator: Adobe Illustrator 23.0.0, SVG Export Plug-In . SVG Version: 6.00 Build 0)  -->
<svg version="1.1" id="Layer_1" xmlns="http://www.w3.org/2000/svg" xmlns:xlink="http://www.w3.org/1999/xlink" x="0px" y="0px"
	 viewBox="0 0 200 200" style="enable-background:new 0 0 200 200;" xml:space="preserve">
<style type="text/css">
	.st0{fill:#4A0A81;}
	.st1{fill:#5A1C8C;}
	.st2{opacity:0.5;}
	.st3{fill:#8A42C5;}
	.st4{fill:#0082CD;}
	.st5{fill:#632689;}
	.st6{fill:#2B5474;}
	.st7{fill:#FFB394;}
</style>
<g>
	<g>
		<path class="st0" d="M117.1,138.7c0,0-3.1-6.2-5-6.2c-0.9,0-0.3,1.8-1.4,2.4c-1.2,0.6-4,0-4,0s-2.1,4.8-6.1,6.4
			c-5.5,2.2-4.8,6.1-4.8,6.1s2.9,0,7.7-1.8c3.7-1.4,7.7-2.1,10.8-3.3C117.4,141,117.1,138.7,117.1,138.7z"/>
		<path class="st1" d="M117.4,78c0,0-6.5,19.1-7.5,24.8c-1,5.6,4.5,32.8,4.5,32.8l-7.9,3.1l-10.7-34.3l2.3-24.8L117.4,78z"/>
		<g>
			<g>
				<g class="st2">
					<image style="overflow:visible;" width="119" height="119" xlink:href="52A3486D.png"  transform="matrix(1 0 0 1 4 70)">
					</image>
				</g>
				<g>
					<path class="st3" d="M63.5,151.7c-12.4,0-22.4-10.1-22.4-22.4c0-12.4,10.1-22.4,22.4-22.4s22.4,10.1,22.4,22.4
						C85.9,141.6,75.8,151.7,63.5,151.7z M63.5,109c-11.2,0-20.3,9.1-20.3,20.3s9.1,20.3,20.3,20.3s20.3-9.1,20.3-20.3
						S74.7,109,63.5,109z"/>
					<circle class="st4" cx="63.5" cy="129.3" r="2.2"/>
				</g>
				<g>
					<path class="st5" d="M63.5,153.8c-13.5,0-24.5-11-24.5-24.5c0-13.5,11-24.5,24.5-24.5s24.5,11,24.5,24.5
						C88,142.8,77,153.8,63.5,153.8z M63.5,107.1c-12.2,0-22.2,10-22.2,22.2s10,22.2,22.2,22.2s22.2-10,22.2-22.2
						S75.7,107.1,63.5,107.1z"/>
					<circle class="st3" cx="63.5" cy="129.3" r="2.4"/>
				</g>
			</g>
			<g>
				<g class="st2">
					<image style="overflow:visible;" width="119" height="119" xlink:href="52A3486F.png"  transform="matrix(1 0 0 1 78 70)">
					</image>
				</g>
				<g>
					<path class="st5" d="M136.9,153.8c-13.5,0-24.5-11-24.5-24.5c0-13.5,11-24.5,24.5-24.5s24.5,11,24.5,24.5
						C161.5,142.8,150.5,153.8,136.9,153.8z M136.9,107.1c-12.2,0-22.2,10-22.2,22.2s10,22.2,22.2,22.2s22.2-10,22.2-22.2
						S149.2,107.1,136.9,107.1z"/>
					<circle class="st6" cx="136.9" cy="129.3" r="2.4"/>
				</g>
				<g>
					<path class="st3" d="M136.9,151.5c-12.3,0-22.2-10-22.2-22.2c0-12.3,10-22.2,22.2-22.2c12.3,0,22.2,10,22.2,22.2
						C159.2,141.5,149.2,151.5,136.9,151.5z M136.9,109.2c-11.1,0-20.1,9-20.1,20.1s9,20.1,20.1,20.1s20.1-9,20.1-20.1
						S148,109.2,136.9,109.2z"/>
					<circle class="st3" cx="136.9" cy="129.3" r="2.2"/>
				</g>
			</g>
		</g>
		<g>
			<path class="st0" d="M122.7,96.2C122.7,96.2,122.7,96.2,122.7,96.2l-51.2-2c-0.9,0-9.2,0.2-11.1-0.1c-3.9-0.7-6.6-6.6-6.9-7.3
				c-0.2-0.5,0-1.1,0.5-1.3c0.5-0.2,1.1,0,1.3,0.5c0.7,1.6,3,5.7,5.4,6.1c1.4,0.2,8.2,0.1,10.7,0l51.2,2c0.6,0,1,0.5,1,1
				C123.7,95.8,123.2,96.2,122.7,96.2z"/>
			<g>
				<path class="st0" d="M107.3,146.3c-0.4,0-0.8-0.2-0.9-0.7l-5.6-14.7c-0.2-0.5,0.1-1.1,0.6-1.3c0.5-0.2,1.1,0.1,1.3,0.6l5.6,14.7
					c0.2,0.5-0.1,1.1-0.6,1.3C107.6,146.3,107.5,146.3,107.3,146.3z"/>
				<path class="st3" d="M111.9,144.9l-8.2,3.2c-0.6,0.2-1.3-0.1-1.5-0.7l0,0c-0.2-0.6,0.1-1.3,0.7-1.5l8.2-3.2
					c0.6-0.2,1.3,0.1,1.5,0.7l0,0C112.8,143.9,112.5,144.6,111.9,144.9z"/>
				<g>
					<circle class="st0" cx="100.4" cy="128.8" r="8.2"/>
					<circle class="st3" cx="100.4" cy="128.8" r="6.7"/>
				</g>
			</g>
			<g>
				<path class="st0" d="M63.3,130.1c-0.1,0-0.2,0-0.2,0c-0.5-0.1-0.9-0.7-0.8-1.2L70.5,93c0.1-0.5,0.7-0.9,1.2-0.8
					c0.5,0.1,0.9,0.7,0.8,1.2l-8.2,35.9C64.1,129.8,63.7,130.1,63.3,130.1z"/>
				<path class="st0" d="M103.2,130.4c-0.2,0-0.3,0-0.5-0.1c-0.5-0.3-0.6-0.9-0.4-1.4l22.1-38.3c0.3-0.5,0.9-0.6,1.4-0.4
					c0.5,0.3,0.6,0.9,0.4,1.4L104,129.9C103.9,130.2,103.5,130.4,103.2,130.4z"/>
				<path class="st3" d="M115.9,88.5c0.4-2.6,2.6-2.3,9-1.9c6.4,0.4,5.7-2.6,10.5-1.9c4.9,0.8,5.6,5.3-0.8,7.9
					C131.4,94,115.6,91.1,115.9,88.5z"/>
				<path class="st0" d="M137.1,130.4C137.1,130.4,137.1,130.4,137.1,130.4l-36.8-0.4c-0.3,0-0.5-0.1-0.7-0.3L70.3,98.2
					c-0.4-0.4-0.4-1,0.1-1.4c0.4-0.4,1-0.4,1.4,0.1l29,31.2l34.8,0.4l-13.8-32.8c-0.2-0.5,0-1.1,0.5-1.3c0.5-0.2,1.1,0,1.3,0.5
					l14.4,34.2c0.1,0.3,0.1,0.7-0.1,1C137.8,130.3,137.5,130.4,137.1,130.4z"/>
			</g>
		</g>
		<path class="st5" d="M98.7,74.2c0,0-14,20.6-11.8,25.2c2.2,4.6,17.3,20.3,17.3,20.3l4.9-4.6c0,0-9.6-10.5-11.2-15.3
			s18.4-15.4,20.6-21.8s-0.1-8.7-0.1-8.7L98.7,74.2z"/>
		<path class="st0" d="M114.9,117.4c0,0-5.4-4.2-7.2-3.5c-0.8,0.4,0.5,1.7-0.2,2.7c-0.8,1.1-3.6,1.7-3.6,1.7s0.1,5.2-2.8,8.4
			c-4,4.4-1.7,7.5-1.7,7.5s2.6-1.2,6.2-4.9c2.7-2.9,6.1-5.3,8.3-7.7C116.2,119.4,114.9,117.4,114.9,117.4z"/>
	</g>
	<g>
		<path class="st3" d="M71.6,47c0,0,0.2,4.2,3.3,9.7c3.9,6.7,12.8,10.5,16.9,13.6c3.5,2.6,5.6,5.8,5.6,5.8s20.4,0.8,22.1-7.1
			c1.1-5.2-23.4-23.8-35.7-27.5C71.6,37.7,71.6,47,71.6,47z"/>
		<path class="st7" d="M71.9,57.9c0,0,0.2,5.2-1.7,13.4C69.2,76.2,63,86.6,63,86.6l6.5,0.6c0,0,6.9-10.2,8-16.2
			c1.1-6,2.6-14.1,2.6-14.1L71.9,57.9z"/>
		<path class="st5" d="M76.4,46c-5.4,0.4-5.8,15.8-5.8,15.8L80.9,63C80.9,63,81.8,45.7,76.4,46z"/>
		<path class="st7" d="M64.3,84c0,0-4.7,6.5-4.8,7.8s0.6,3.3,3.2,3.3c2.6,0,5.2,0.4,6.1-1.1c0.9-1.5,0.7-6.9,0.7-6.9L64.3,84z"/>
		<g>
			<polyline class="st7" points="68.8,42.9 71.7,47.5 78.3,40.5 74,37.2 68.8,42.9 			"/>
			<path class="st5" d="M64.8,30.8c0,0-4.4,0.9-4.1-2.6s4.3-3,6.5-3.5c2.2-0.6,10.6,0.2,11.7,3.3s-0.7,12.5-0.7,12.5l-4.3-1.7
				L64.8,30.8"/>
			<path class="st7" d="M64.8,30.8c0,0-0.2,2.2-0.3,4.8l-2,3.1l1.7,0.9c0,2.6,0.4,4.5,1,4.8c1.4,0.7,7.9-2.8,8.8-5.6
				C75.6,33.3,71.1,29.8,64.8,30.8z"/>
			<ellipse class="st7" cx="74" cy="37.2" rx="2.2" ry="2.9"/>
			<polygon class="st5" points="72.1,29.5 71.7,37.2 74,34.3 			"/>
		</g>
	</g>
	<path class="st3" d="M115.6,123.8l-6.6,5.7c-0.5,0.4-1.3,0.4-1.7-0.1l0,0c-0.4-0.5-0.4-1.3,0.1-1.7l6.6-5.7
		c0.5-0.4,1.3-0.4,1.7,0.1l0,0C116.2,122.6,116.1,123.4,115.6,123.8z"/>
</g>
</svg>
