<?xml version="1.0" encoding="utf-8"?>
<!-- Generator: Adobe Illustrator 23.0.0, SVG Export Plug-In . SVG Version: 6.00 Build 0)  -->
<svg version="1.1" id="Layer_1" xmlns="http://www.w3.org/2000/svg" xmlns:xlink="http://www.w3.org/1999/xlink" x="0px" y="0px"
	 viewBox="0 0 200 200" style="enable-background:new 0 0 200 200;" xml:space="preserve">
<style type="text/css">
	.st0{fill:none;stroke:#4A0A81;stroke-width:2.5;stroke-miterlimit:10;}
	.st1{fill:#5A1C8C;}
	.st2{fill:#4A0A81;}
	.st3{fill:none;stroke:#632689;stroke-width:3.5;stroke-miterlimit:10;}
	.st4{fill:#2B5474;}
	.st5{fill:#FFB394;}
	.st6{fill:#632689;}
	.st7{fill:none;stroke:#4A0A81;stroke-miterlimit:10;}
	.st8{fill:#8A42C5;}
</style>
<path class="st0" d="M63.9,83.9c0,0,2.3,8.1,11.2,8.4"/>
<path class="st1" d="M132,100.6c0,0-12.4,8.1-16.9,16.7c-4.5,8.7-12.1,33.1-12.1,33.1l-8.4-0.9c0,0,7.4-26.4,11-36.1
	s8.5-20.3,8.5-20.3L132,100.6z"/>
<path class="st2" d="M104.6,157c0,0,1.1-6.8-0.3-7.9c-0.7-0.5-1.3,1.3-2.5,1.1c-1.3-0.2-3.2-2.4-3.2-2.4s-4.5,2.6-8.7,1.6
	c-5.7-1.4-7.4,2.1-7.4,2.1s2.3,1.8,7.2,3.1c3.8,1,7.5,2.8,10.7,3.7C103.5,159,104.6,157,104.6,157z"/>
<g>
	<image style="overflow:visible;" width="119" height="119" xlink:href="9894F422.png"  transform="matrix(1 0 0 1 4 84)">
	</image>
</g>
<circle class="st3" cx="63.6" cy="143.2" r="23.4"/>
<circle class="st4" cx="63.6" cy="143.2" r="2.4"/>
<g>
	<image style="overflow:visible;" width="119" height="119" xlink:href="9894F426.png"  transform="matrix(1 0 0 1 78 84)">
	</image>
</g>
<circle class="st3" cx="137" cy="143.2" r="23.4"/>
<circle class="st4" cx="137" cy="143.2" r="2.4"/>
<polygon class="st5" points="93.5,128.7 94,132.5 99.8,132 99.7,127.9 "/>
<path class="st2" d="M102.7,136c0,0-1.7-6.7-3.5-7.1c-0.9-0.2-0.7,1.7-1.8,2c-1.3,0.4-3.9-0.9-3.9-0.9s-3.1,4.2-7.3,5
	c-5.8,1-6,4.9-6,4.9s2.8,0.7,7.9-0.1c3.9-0.6,8-0.5,11.3-1C102.5,138.3,102.7,136,102.7,136z"/>
<path class="st6" d="M111.8,86.7c0,0-22.7,8.3-24.8,15.3c-2.1,6.9,6.6,28.3,6.6,28.3l6.7-0.7c0,0-2.4-19.3-1.3-23.7
	c1-4,25.4-0.7,31.1-4.4c5.7-3.7,1.8-15.5,1.8-15.5L111.8,86.7z"/>
<line class="st0" x1="71.6" y1="107.2" x2="122.8" y2="109.2"/>
<line class="st7" x1="94.7" y1="157.3" x2="99.6" y2="142.3"/>
<path class="st8" d="M98.6,159.8l-8.4-2.6c-0.6-0.2-1-0.9-0.8-1.5l0,0c0.2-0.6,0.9-1,1.5-0.8l8.4,2.6c0.6,0.2,1,0.9,0.8,1.5l0,0
	C99.9,159.6,99.2,160,98.6,159.8z"/>
<g>
	<circle class="st2" cx="100.5" cy="142.8" r="8.2"/>
	<circle class="st8" cx="100.5" cy="142.8" r="6.7"/>
</g>
<path class="st0" d="M66.1,78.5c0,0-1.5,12.7,8.9,12.3l-11.6,52.3"/>
<line class="st0" x1="103.3" y1="143.3" x2="125.4" y2="105.1"/>
<path class="st8" d="M116,102.4c0.4-2.6,2.6-2.3,9-1.9s5.7-2.6,10.5-1.9c4.9,0.8,5.6,5.3-0.8,7.9C131.5,107.9,115.6,105.1,116,102.4
	z"/>
<polyline class="st0" points="122.8,109.2 137.2,143.4 100.4,143 71.1,111.4 "/>
<path class="st8" d="M98.4,50.2c0,0-0.9,5.4,1.3,11.5c2.6,7.3,6.5,10.8,8.3,15.7c1.5,4.1,3.3,9.4,3.3,9.4s14.5,5.1,20.3-0.6
	c3.8-3.7-6.3-29.5-16.6-37.2C101.1,38.6,98.4,50.2,98.4,50.2z"/>
<path class="st5" d="M97.2,63.4c0,0-2.6,5.3-9.9,11.9C83.6,78.7,75,81.9,75,81.9l1.5,5.6c0,0,16.6-5,20.1-9.9
	c3.6-4.9,8.4-11.6,8.4-11.6L97.2,63.4z"/>
<path class="st6" d="M106.3,52.7c-5-2-12,11.8-12,11.8l8.8,5.4C103.1,69.9,111.3,54.7,106.3,52.7z"/>
<path class="st5" d="M75.1,81.6c0,0-7.7,2-8.7,2.9s-1.7,2.9,0.3,4.6c2,1.7,3.8,3.6,5.4,3.1c1.7-0.5,5-4.8,5-4.8L75.1,81.6z"/>
<g>
	<polyline class="st5" points="95.8,47.1 98.8,51.7 105.3,44.7 101,41.4 95.8,47.1 	"/>
	<path class="st6" d="M91.9,35l-2.7-5.3c0,0-0.4,0.1,4.8,0.9c3.9,0.6,11-1.5,12.1,1.7c1.1,3.2-0.7,12.5-0.7,12.5L101,43L91.9,35"/>
	<path class="st5" d="M91.9,35c0,0-0.2,2.2-0.3,4.8l-2,3.1l1.7,0.9c0,2.6,0.4,4.5,1,4.8c1.4,0.7,7.9-2.8,8.8-5.6
		C102.7,37.5,98.1,34,91.9,35z"/>
	<ellipse class="st5" cx="101" cy="41.4" rx="2.2" ry="2.9"/>
	<polygon class="st6" points="99.2,33.7 98.8,41.4 101,38.5 	"/>
</g>
</svg>
