<?xml version="1.0" encoding="utf-8"?>
<!-- Generator: Adobe Illustrator 23.0.0, SVG Export Plug-In . SVG Version: 6.00 Build 0)  -->
<svg version="1.1" id="Layer_1" xmlns="http://www.w3.org/2000/svg" xmlns:xlink="http://www.w3.org/1999/xlink" x="0px" y="0px"
	 viewBox="0 0 600 600" style="enable-background:new 0 0 600 600;" xml:space="preserve">
<style type="text/css">
	.st0{fill:#62268B;}
	.st1{fill:#EC0063;}
	.st2{fill:#FFFFFF;}
</style>
<ellipse transform="matrix(0.5237 -0.8519 0.8519 0.5237 3.941 363.6613)" class="st0" cx="327.2" cy="178.3" rx="95.6" ry="130.3"/>
<path class="st0" d="M333.2,500.7c13.5,15.4,77.7-7.5,119.5-44.2s65.6-89.2,52.1-104.6c-13.5-15.4-59.2,12.1-101.1,48.9
	S319.7,485.3,333.2,500.7z"/>
<path class="st1" d="M184.7,398.1c35.7,47.1,84.6,112.2,36.6,100.9c-20.2-4.7-61.9-7.7-97.5-54.7s-36.8-105.6-19.9-118.4
	C120.7,313.2,149.1,351.1,184.7,398.1z"/>
<g transform="translate(300,300)">
	<path class="st2" d="M210.6,39c-13.9,83.5-104.6,154.1-185.5,170.5c-38.4,8.9-80.1,2.3-115.7-13.8
		c-95.3-43.1-132-165.1-119.5-261.3c9.3-71.2,39.2-148.9,88.4-164.2s146,32.5,214.3,76.8c40.4,26.2,78.2,61.1,101.8,103.5
		C211.1-19.6,215.3,10.5,210.6,39z"/>
</g>
</svg>
